# xmcd
#
# Track frame offsets: 
#        150
#        14007
#        28445
#        44742
#        59222
#        74140
#        86262
#        99887
#        113065
#        128812
#        146290
#        161855
#        178562
#        194330
#
# Disc length: 2759 seconds
#
# Revision: 5
# Processed by: cddbd v1.5.2PL0 Copyright (c) Steve Scherf et al.
# Submitted via: ExactAudioCopy v0.99pb3
#
DISCID=d20ac50e
DTITLE=Catuaba Com Amendoim - Catuaba Com Amendoim
DYEAR=2000
DGENRE=forró
TTITLE0=Meu Cenário
TTITLE1=Meu Velho Ipojuca
TTITLE2=O Filho Do Domo
TTITLE3=Tareco E Mariola
TTITLE4=NãoChora, Não Chora, Não
TTITLE5=Olhar De Passarinho
TTITLE6=Quando O Coração Quer
TTITLE7=Forró Brasileirinho
TTITLE8=Riacho Vadio
TTITLE9=Foi Bom Te Amar
TTITLE10=Tire O Pé Do Chão
TTITLE11=Vida De Vaqueiro
TTITLE12=Dois Rubis
TTITLE13=Tudo Demais É Veneno
EXTD=
EXTT0=
EXTT1=
EXTT2=
EXTT3=
EXTT4=
EXTT5=
EXTT6=
EXTT7=
EXTT8=
EXTT9=
EXTT10=
EXTT11=
EXTT12=
EXTT13=
PLAYORDER=
